<?xml version="1.0"?>
<svg xmlns="http://www.w3.org/2000/svg" xmlns:xlink="http://www.w3.org/1999/xlink" version="1.1" id="Layer_1" x="0px" y="0px" viewBox="0 0 496 496" style="enable-background:new 0 0 496 496;" xml:space="preserve" width="512px" height="512px" class=""><g><path style="fill:#333333" d="M432.936,0H432h-48H128v232h16V16h240v40H160v168h224v256H144v-48h-16v64h256h48h0.936  C467.712,496,496,467.712,496,432.936V63.064C496,28.288,467.712,0,432.936,0z M176,208V72h208v136H176z M400,480V16h16v464H400z   M432,72h16v136h-16V72z M480,432.936C480,458.888,458.888,480,432.936,480H432V224h32V56h-32V16h0.936  C458.888,16,480,37.112,480,63.064V432.936z" data-original="#333333" class=""/><path style="fill:#333333" d="M103.984,224C46.648,224,0,270.648,0,327.984v3.048c0,30.952,13.632,60.08,37.416,79.888L104,466.416  l66.568-55.496c23.784-19.824,37.424-48.936,37.424-79.888v-3.048C207.992,270.648,161.336,224,103.984,224z M104,376  c-26.512,0-48-21.488-48-48s21.488-48,48-48s48,21.488,48,48S130.512,376,104,376z" data-original="#F9BA48" class="active-path" data-old_color="#F9BA48"/><path style="fill:#333333" d="M160,328c0-30.872-25.128-56-56-56s-56,25.128-56,56s25.128,56,56,56S160,358.872,160,328z M104,368  c-22.056,0-40-17.944-40-40s17.944-40,40-40s40,17.944,40,40S126.056,368,104,368z" data-original="#333333" class=""/></g> </svg>
