<?xml version="1.0"?>
<svg xmlns="http://www.w3.org/2000/svg" xmlns:xlink="http://www.w3.org/1999/xlink" version="1.1" id="Capa_1" x="0px" y="0px" viewBox="0 0 480 480" style="enable-background:new 0 0 480 480;" xml:space="preserve" width="512px" height="512px" class=""><g><g>
	<path style="fill:#2BDAA6" d="M168,448c-10.432,0-19.328,6.688-22.632,16h189.256c-3.304-9.312-12.2-16-22.632-16h-16H184H168z" data-original="#3FE7EF" class="" data-old_color="#2bdaa6"/>
	<path style="fill:#2BDAA6" d="M16,344c0,13.232,10.768,24,24,24h160h80h160c13.232,0,24-10.768,24-24v-16H16V344z" data-original="#3FE7EF" class="" data-old_color="#2bdaa6"/>
</g><polygon style="fill:#2BDAA6" points="80,244.944 80,280 96,280 96,244.944 88,240.944 " data-original="#5EA7A4" class="" data-old_color="#2bdaa6"/><polygon style="fill:#2BDAA6" points="206.248,384 194.248,432 285.752,432 273.752,384 " data-original="#3FE7EF" class="" data-old_color="#2bdaa6"/><g>
	<path style="fill:#FFA135" d="M240,144c-0.776,0-1.552-0.112-2.296-0.336L144,115.552v62.544l96,29.536l96-29.536v-62.544   l-93.704,28.112C241.552,143.888,240.776,144,240,144z" data-original="#E0634B" class="active-path" data-old_color="#ffa135"/>
	<polygon style="fill:#FFA135" points="107.84,88 240,127.648 372.16,88 240,48.352  " data-original="#E0634B" class="active-path" data-old_color="#ffa135"/>
</g><path style="fill:#FFD679" d="M440,16H40c-13.232,0-24,10.768-24,24v272h448V40C464,26.768,453.232,16,440,16z M352,184  c0,3.512-2.288,6.616-5.648,7.648l-104,32C241.584,223.88,240.792,224,240,224s-1.584-0.12-2.352-0.352l-104-32  c-3.36-1.032-5.648-4.136-5.648-7.648v-73.248l-32-9.6v125.904l11.576,5.792C110.288,234.2,112,236.968,112,240v48  c0,4.424-3.584,8-8,8H72c-4.416,0-8-3.576-8-8v-48c0-3.032,1.712-5.8,4.424-7.16L80,227.056V96.352l-2.296-0.688  C74.32,94.648,72,91.528,72,88s2.32-6.648,5.704-7.664l160-48c1.496-0.456,3.104-0.456,4.592,0l160,48  C405.68,81.352,408,84.472,408,88s-2.32,6.648-5.704,7.664L352,110.752V184z M384,296h-16v-16h16V296z M416,296h-16v-16h16V296z   M448,296h-16v-16h16V296z" data-original="#F8CF26" class="" data-old_color="#ffd679"/><path d="M440,0H40C17.944,0,0,17.944,0,40v304c0,22.056,17.944,40,40,40h149.752l-12,48H168c-22.056,0-40,17.944-40,40  c0,4.424,3.584,8,8,8h208c4.416,0,8-3.576,8-8c0-22.056-17.944-40-40-40h-9.752l-12-48H440c22.056,0,40-17.944,40-40V40  C480,17.944,462.056,0,440,0z M40,16h400c13.232,0,24,10.768,24,24v272H16V40C16,26.768,26.768,16,40,16z M334.632,464H145.368  c3.304-9.312,12.2-16,22.632-16h16h112h16C322.432,448,331.328,454.688,334.632,464z M285.752,432h-91.504l12-48h67.504L285.752,432  z M440,368H280h-80H40c-13.232,0-24-10.768-24-24v-16h448v16C464,357.232,453.232,368,440,368z" data-original="#000000" class="" style="fill:#2A4F56" data-old_color="#2a4f56"/><path d="M72,296h32c4.416,0,8-3.576,8-8v-48c0-3.032-1.712-5.8-4.424-7.16L96,227.056V101.152l32,9.6V184  c0,3.512,2.288,6.616,5.648,7.648l104,32c0.768,0.232,1.56,0.352,2.352,0.352c0.792,0,1.584-0.12,2.352-0.352l104-32  c3.36-1.032,5.648-4.136,5.648-7.648v-73.248l50.296-15.088C405.68,94.648,408,91.528,408,88s-2.32-6.648-5.704-7.664l-160-48  c-1.496-0.456-3.104-0.456-4.592,0l-160,48C74.32,81.352,72,84.472,72,88s2.32,6.648,5.704,7.664L80,96.352v130.704l-11.576,5.792  C65.712,234.2,64,236.968,64,240v48C64,292.424,67.584,296,72,296z M336,178.096l-96,29.536l-96-29.536v-62.544l93.704,28.112  c0.744,0.224,1.52,0.336,2.296,0.336s1.552-0.112,2.296-0.336L336,115.552V178.096z M240,48.352L372.16,88L240,127.648L107.84,88  L240,48.352z M80,244.944l8-4l8,4V280H80V244.944z" data-original="#000000" class="" style="fill:#2A4F56" data-old_color="#2a4f56"/><rect x="432" y="280" width="16" height="16" data-original="#000000" class="" style="fill:#2A4F56" data-old_color="#2a4f56"/><rect x="400" y="280" width="16" height="16" data-original="#000000" class="" style="fill:#2A4F56" data-old_color="#2a4f56"/><rect x="368" y="280" width="16" height="16" data-original="#000000" class="" style="fill:#2A4F56" data-old_color="#2a4f56"/></g> </svg>
