<svg x="0" y="0" width="1920" height="1080" viewBox="0 0 1680 945" xmlns="http://www.w3.org/2000/svg" xmlns:xlink="http://www.w3.org/1999/xlink" xmlns:fi="http://pattern.flaticon.com/"><rect x="0px" y="0px" width="100%" height="100%" opacity="0" fill="#ffffff"/><defs><g transform="matrix(0.12765957415103912 0 0 0.12765957415103912 209 303)" id="L1_92"><path d="M462.5,425H45V7.5C45,3.358,41.643,0,37.5,0S30,3.358,30,7.5v63.333H7.5c-4.143,0-7.5,3.358-7.5,7.5s3.357,7.5,7.5,7.5H30   v55.833H7.5c-4.143,0-7.5,3.358-7.5,7.5s3.357,7.5,7.5,7.5H30V212.5H7.5c-4.143,0-7.5,3.358-7.5,7.5s3.357,7.5,7.5,7.5H30v55.833   H7.5c-4.143,0-7.5,3.358-7.5,7.5s3.357,7.5,7.5,7.5H30v55.833H7.5c-4.143,0-7.5,3.358-7.5,7.5s3.357,7.5,7.5,7.5H30V432.5   c0,4.142,3.357,7.5,7.5,7.5h110.833v22.5c0,4.142,3.357,7.5,7.5,7.5s7.5-3.358,7.5-7.5V440h173.334v22.5c0,4.142,3.357,7.5,7.5,7.5   s7.5-3.358,7.5-7.5V440H462.5c4.143,0,7.5-3.358,7.5-7.5S466.643,425,462.5,425z" fill="#ffffff"/><path d="M77.5,410c4.143,0,7.5-3.358,7.5-7.5v-175h63.333v175c0,4.142,3.357,7.5,7.5,7.5s7.5-3.358,7.5-7.5V298.333H222.5V402.5   c0,4.142,3.357,7.5,7.5,7.5s7.5-3.358,7.5-7.5V290.833c0-4.142-3.357-7.5-7.5-7.5h-66.667V220c0-4.142-3.357-7.5-7.5-7.5H77.5   c-4.143,0-7.5,3.358-7.5,7.5v182.5C70,406.642,73.357,410,77.5,410z" fill="#ffffff"/><path d="M270,410c4.143,0,7.5-3.358,7.5-7.5V85.833h59.167V402.5c0,4.142,3.357,7.5,7.5,7.5s7.5-3.358,7.5-7.5V156.667H415V402.5   c0,4.142,3.357,7.5,7.5,7.5s7.5-3.358,7.5-7.5V149.167c0-4.142-3.357-7.5-7.5-7.5h-70.833V78.333c0-4.142-3.357-7.5-7.5-7.5H270   c-4.143,0-7.5,3.358-7.5,7.5V402.5C262.5,406.642,265.857,410,270,410z" fill="#ffffff"/></g><g transform="matrix(0.1171875 0 0 0.1171875 26 133)" id="L1_93"><path d="M488.399,492h-21.933V173.536c0-14.823-12.06-26.882-26.882-26.882H390.56c-14.823,0-26.882,12.06-26.882,26.882V492    h-55.692V317.825c0-14.823-12.059-26.882-26.882-26.882H232.08c-14.823,0-26.882,12.06-26.882,26.882V492h-55.692v-90.204    c0-14.823-12.06-26.882-26.882-26.882H73.599c-14.823,0-26.882,12.06-26.882,26.882V492H23.601c-5.523,0-10,4.477-10,10    s4.477,10,10,10h464.798c5.523,0,10-4.477,10-10S493.922,492,488.399,492z M129.504,492H66.716v-90.204    c0-3.795,3.087-6.882,6.882-6.882h49.024c3.795,0,6.882,3.087,6.882,6.882V492z M287.985,492h-62.788V317.825    c0-3.795,3.087-6.882,6.882-6.882h49.024c3.794,0,6.882,3.087,6.882,6.882V492z M446.466,492h-62.788V173.536    c0-3.795,3.087-6.882,6.882-6.882h49.024c3.795,0,6.882,3.087,6.882,6.882V492z" fill="#ffffff"/><path d="M466.442,10.516c0.14-2.729-0.82-5.504-2.904-7.588c-2.084-2.084-4.859-3.045-7.588-2.904    C455.789,0.017,455.63,0,455.466,0h-60.5c-5.523,0-10,4.477-10,10s4.477,10,10,10h37.357l-98.857,98.858l-37.28-37.28    c-1.875-1.875-4.419-2.929-7.071-2.929c-2.652,0-5.196,1.054-7.071,2.929l-179.769,179.77c-3.905,3.905-3.905,10.237,0,14.143    c1.953,1.951,4.512,2.927,7.071,2.927s5.119-0.976,7.071-2.929L289.115,102.79l37.28,37.28c3.905,3.905,10.237,3.905,14.143,0    L446.466,34.143v33.81c0,5.523,4.477,10,10,10s10-4.477,10-10V11C466.466,10.837,466.449,10.678,466.442,10.516z" fill="#ffffff"/><circle cx="75" cy="303" r="10" fill="#ffffff"/></g><g transform="matrix(0.1171875 0 0 0.1171875 209 202)" id="L1_94"><path d="M360.465,443.988c-4.574-1.161-9.207,1.638-10.342,6.204l-8.533,34.133c-1.152,4.582,1.638,9.207,6.212,10.351     c0.691,0.179,1.391,0.256,2.074,0.256c3.823,0,7.296-2.586,8.269-6.46l8.533-34.133     C367.821,449.765,365.039,445.132,360.465,443.988z" fill="#ffffff"/><path d="M256,273.066c1.109,0,2.219-0.213,3.26-0.648l93.867-38.844c4.352-1.801,6.417-6.793,4.617-11.145     c-1.801-4.361-6.81-6.409-11.153-4.625L256,255.299L17.067,156.432v-2.833c0-4.71-3.823-8.533-8.533-8.533S0,148.889,0,153.599     v8.533c0,3.456,2.082,6.571,5.274,7.885l247.467,102.4C253.781,272.852,254.891,273.066,256,273.066z" fill="#ffffff"/><path d="M357.513,360.49c-2.082-4.224-7.185-5.965-11.426-3.874c-16.205,8.013-43.273,17.331-81.553,18.603v-76.553     c0-4.71-3.823-8.533-8.533-8.533s-8.533,3.823-8.533,8.533v76.476c-105.958-3.379-140.151-67.567-145.067-78.251v-57.958     c0-4.71-3.823-8.533-8.533-8.533c-4.71,0-8.533,3.823-8.533,8.533v59.733c0,1.084,0.205,2.159,0.606,3.174     c1.485,3.695,37.803,90.692,170.061,90.692c46.225,0,78.618-11.213,97.647-20.617     C357.879,369.825,359.612,364.714,357.513,360.49z" fill="#ffffff"/><path d="M384,452.266c-4.719,0-8.533,3.823-8.533,8.533v25.6c0,4.71,3.814,8.533,8.533,8.533c4.719,0,8.533-3.823,8.533-8.533     v-25.6C392.533,456.089,388.719,452.266,384,452.266z" fill="#ffffff"/><path d="M503.467,145.066c-4.719,0-8.533,3.823-8.533,8.533v2.816l-102.4,42.146v-15.42l114.193-47.258     c3.191-1.314,5.274-4.429,5.274-7.885c0-3.456-2.082-6.562-5.265-7.885L259.26,17.714c-2.091-0.862-4.429-0.862-6.519,0     L5.274,120.114C2.082,121.437,0,124.543,0,127.999c0,3.456,2.082,6.571,5.274,7.885l247.467,102.4     c1.041,0.435,2.15,0.649,3.26,0.649s2.219-0.213,3.26-0.649l89.481-37.026c4.361-1.792,6.426-6.784,4.625-11.145     c-1.801-4.352-6.793-6.409-11.145-4.617L256,221.166L30.848,127.999L256,34.832l225.152,93.167l-97.971,40.542l-93.841-35.038     c0.495-1.775,0.794-3.601,0.794-5.504c0-14.353-14.993-25.6-34.133-25.6s-34.133,11.247-34.133,25.6     c0,14.353,14.993,25.6,34.133,25.6c8.542,0,16.162-2.33,22.084-6.084l97.382,36.361v27.341v0.009v182.878     c-9.907,3.541-17.067,12.919-17.067,24.03c0,14.114,11.486,25.6,25.6,25.6s25.6-11.486,25.6-25.6     c0-11.11-7.159-20.488-17.067-24.03v-48.435c24.499-18.492,33.28-43.119,33.664-44.211c0.307-0.896,0.469-1.843,0.469-2.79     v-59.733c0-4.71-3.814-8.533-8.533-8.533s-8.533,3.823-8.533,8.533v58.155c-1.476,3.618-6.605,14.771-17.067,25.779V217.019     l114.185-46.993c3.2-1.314,5.282-4.437,5.282-7.893v-8.533C512,148.889,508.186,145.066,503.467,145.066z M256,136.532     c-10.419,0-17.067-5.052-17.067-8.533c0-3.482,6.647-8.533,17.067-8.533s17.067,5.052,17.067,8.533     C273.067,131.481,266.419,136.532,256,136.532z M384,426.666c-4.71,0-8.533-3.831-8.533-8.533c0-4.702,3.823-8.533,8.533-8.533     s8.533,3.831,8.533,8.533C392.533,422.834,388.71,426.666,384,426.666z" fill="#ffffff"/><path d="M417.877,450.192c-1.143-4.565-5.786-7.356-10.342-6.204c-4.574,1.143-7.356,5.777-6.212,10.351l8.533,34.133     c0.973,3.874,4.446,6.46,8.269,6.46c0.683,0,1.382-0.077,2.074-0.256c4.574-1.143,7.356-5.769,6.212-10.351L417.877,450.192z" fill="#ffffff"/></g><g transform="matrix(0.11718658357858658 0 0 0.11718658357858658 27.999998092651367 303)" id="L1_95"><path d="M291.057,242.811c1.51,2.953,4.514,4.659,7.62,4.659c1.297,0,2.628-0.299,3.866-0.93     c0.503-0.256,50.731-25.771,75.503-33.596c4.489-1.425,6.98-6.221,5.555-10.709c-1.417-4.489-6.178-6.989-10.709-5.572     c-26.095,8.252-75.981,33.596-78.097,34.671C290.596,233.467,288.924,238.605,291.057,242.811z" fill="#ffffff"/><path d="M298.677,145.071c1.297,0,2.628-0.299,3.866-0.93c0.503-0.256,50.731-25.771,75.503-33.596     c4.489-1.425,6.98-6.221,5.555-10.709c-1.417-4.489-6.178-6.989-10.709-5.572c-26.095,8.252-75.981,33.596-78.097,34.671     c-4.198,2.133-5.871,7.27-3.738,11.477C292.567,143.364,295.571,145.071,298.677,145.071z" fill="#ffffff"/><path d="M503.469,128.004c-4.719,0-8.533,3.823-8.533,8.533v332.8c0,14.114-11.486,25.6-25.6,25.6h-204.8v-19.635     c12.442-4.352,44.851-14.498,76.8-14.498c74.334,0,124.809,16.461,125.312,16.631c2.568,0.853,5.436,0.427,7.68-1.178     c2.227-1.604,3.541-4.181,3.541-6.921V93.871c0-4.002-2.773-7.467-6.682-8.329c0,0-6.69-1.493-18.125-3.593     c-4.617-0.853-9.079,2.219-9.933,6.844c-0.853,4.642,2.21,9.088,6.844,9.941c4.361,0.802,8.013,1.51,10.829,2.074v357.188     c-19.337-5.069-62.276-14.259-119.467-14.259c-37.18,0-73.702,12.211-85.001,16.35c-10.044-4.437-40.405-16.35-77.133-16.35     c-58.778,0-107.196,9.694-128,14.618V100.475c17.041-4.19,67.371-15.138,128-15.138c31.113,0,57.796,9.685,68.267,14.063v335.804     c0,3.072,1.655,5.914,4.326,7.424c2.671,1.519,5.965,1.476,8.602-0.111c0.845-0.503,85.393-51.004,160.435-76.015     c3.49-1.169,5.837-4.42,5.837-8.098V8.537c0-2.799-1.374-5.419-3.678-7.014c-2.287-1.596-5.222-1.963-7.859-0.981     C346.856,26.15,277.771,69.141,277.079,69.568c-3.994,2.5-5.214,7.765-2.714,11.759c2.492,3.994,7.757,5.214,11.759,2.714     c0.631-0.401,60.732-37.794,123.477-63.027v331.281c-58.249,20.241-119.066,53.291-145.067,68.087V93.871     c0-3.234-1.826-6.187-4.719-7.637c-1.468-0.725-36.437-17.963-80.614-17.963c-77.107,0-136.388,16.683-138.88,17.399     c-3.661,1.041-6.187,4.395-6.187,8.201v375.467c0,2.671,1.263,5.197,3.388,6.81c1.502,1.135,3.311,1.724,5.146,1.724     c0.785,0,1.57-0.111,2.338-0.333c0.589-0.162,59.597-16.734,134.195-16.734c31.198,0,57.856,9.711,68.267,14.071v20.062h-204.8     c-14.114,0-25.6-11.486-25.6-25.6v-332.8c0-4.71-3.823-8.533-8.533-8.533s-8.533,3.823-8.533,8.533v332.8     c0,23.526,19.14,42.667,42.667,42.667h426.667c23.526,0,42.667-19.14,42.667-42.667v-332.8     C512.002,131.827,508.188,128.004,503.469,128.004z" fill="#ffffff"/><path d="M291.057,191.611c1.51,2.953,4.514,4.659,7.62,4.659c1.297,0,2.628-0.299,3.866-0.93     c0.503-0.256,50.731-25.771,75.503-33.596c4.489-1.425,6.98-6.221,5.555-10.709c-1.417-4.489-6.178-6.989-10.709-5.572     c-26.095,8.252-75.981,33.596-78.097,34.671C290.596,182.267,288.924,187.405,291.057,191.611z" fill="#ffffff"/><path d="M291.057,294.011c1.51,2.953,4.514,4.659,7.62,4.659c1.297,0,2.628-0.299,3.866-0.93     c0.503-0.256,50.731-25.771,75.503-33.596c4.489-1.425,6.98-6.221,5.555-10.709c-1.417-4.489-6.178-6.989-10.709-5.572     c-26.095,8.252-75.981,33.596-78.097,34.671C290.596,284.667,288.924,289.805,291.057,294.011z" fill="#ffffff"/><path d="M206.748,158.366c-52.693-12.365-112.572,3.388-115.089,4.062c-4.548,1.22-7.253,5.896-6.033,10.453     c1.024,3.814,4.471,6.323,8.235,6.323c0.734,0,1.476-0.094,2.219-0.29c0.572-0.162,58.223-15.326,106.778-3.934     c4.565,1.067,9.182-1.775,10.257-6.366C214.189,164.032,211.339,159.441,206.748,158.366z" fill="#ffffff"/><path d="M206.748,209.566c-52.693-12.356-112.572,3.388-115.089,4.062c-4.548,1.22-7.253,5.897-6.033,10.453     c1.024,3.814,4.471,6.323,8.235,6.323c0.734,0,1.476-0.094,2.219-0.29c0.572-0.162,58.223-15.326,106.778-3.934     c4.565,1.067,9.182-1.775,10.257-6.366C214.189,215.232,211.339,210.641,206.748,209.566z" fill="#ffffff"/><path d="M291.057,345.211c1.51,2.953,4.514,4.659,7.62,4.659c1.297,0,2.628-0.299,3.866-0.93     c0.503-0.256,50.731-25.771,75.503-33.596c4.489-1.425,6.98-6.221,5.555-10.709c-1.417-4.488-6.178-6.989-10.709-5.572     c-26.095,8.252-75.981,33.596-78.097,34.671C290.596,335.867,288.924,341.005,291.057,345.211z" fill="#ffffff"/><path d="M206.748,260.766c-52.693-12.356-112.572,3.379-115.089,4.062c-4.548,1.22-7.253,5.897-6.033,10.453     c1.024,3.814,4.471,6.332,8.235,6.332c0.734,0,1.476-0.102,2.219-0.299c0.572-0.162,58.223-15.326,106.778-3.934     c4.565,1.067,9.182-1.775,10.257-6.366C214.189,266.432,211.339,261.841,206.748,260.766z" fill="#ffffff"/><path d="M206.748,363.166c-52.693-12.365-112.572,3.388-115.089,4.062c-4.548,1.22-7.253,5.897-6.033,10.453     c1.024,3.814,4.471,6.332,8.235,6.332c0.734,0,1.476-0.102,2.219-0.299c0.572-0.162,58.223-15.326,106.778-3.934     c4.565,1.058,9.182-1.775,10.257-6.366C214.189,368.832,211.339,364.241,206.748,363.166z" fill="#ffffff"/><path d="M206.748,311.966c-52.693-12.365-112.572,3.379-115.089,4.062c-4.548,1.22-7.253,5.897-6.033,10.453     c1.024,3.814,4.471,6.332,8.235,6.332c0.734,0,1.476-0.102,2.219-0.299c0.572-0.162,58.223-15.326,106.778-3.934     c4.565,1.067,9.182-1.775,10.257-6.366C214.189,317.632,211.339,313.041,206.748,311.966z" fill="#ffffff"/></g><g transform="matrix(0.1171875 0 0 0.1171875 207 75)" id="L1_96"><path d="M422.503,270.613c-4.115,0-7.451,3.336-7.451,7.451c0,5.217-4.244,9.461-9.461,9.461c-5.216,0-9.461-4.244-9.461-9.461    c0-4.116-3.336-7.451-7.451-7.451s-7.451,3.336-7.451,7.451c0,13.434,10.93,24.363,24.363,24.363    c13.433,0,24.363-10.93,24.363-24.363C429.954,273.947,426.618,270.613,422.503,270.613z" fill="#ffffff"/><path d="M492.444,271.83l-20.972-6.718c-2.686-0.861-4.803-3.005-5.662-5.736c-4.42-14.053-11.09-27.246-19.825-39.214    c-3.981-5.455-8.408-10.664-13.244-15.623c3.094-13.573,4.776-28.934,4.558-42.205c-0.312-18.985-4.106-30.12-11.598-34.044    c-4.035-2.116-16.315-8.544-82.782,21.882c-1.574,0.72-3.044,1.607-4.405,2.623c-4.481-1.204-9.061-2.318-13.669-3.318    c-0.555-0.121-1.127-0.228-1.686-0.346c5.386-11.766,8.531-24.545,9.122-37.737c0.184-4.112-2.999-7.594-7.111-7.777    c-4.101-0.204-7.594,2.998-7.777,7.11c-0.971,21.691-9.969,42.1-25.335,57.467c-9.181,9.181-19.931,15.85-31.388,20.05    c-19.869-2.788-40.107-2.788-59.976,0c-11.458-4.2-22.207-10.869-31.388-20.05c-16.394-16.394-25.423-38.191-25.423-61.376    c0-23.186,9.029-44.982,25.423-61.376c16.394-16.395,38.192-25.424,61.376-25.424c23.184,0,44.982,9.029,61.376,25.424    c6.588,6.588,12.032,14.106,16.181,22.343c1.851,3.676,6.332,5.156,10.007,3.304c3.676-1.85,5.155-6.331,3.304-10.006    c-4.863-9.659-11.24-18.466-18.953-26.18c-19.209-19.209-44.749-29.788-71.914-29.788c-27.165,0-52.705,10.579-71.914,29.788    c-19.209,19.21-29.788,44.749-29.788,71.914s10.579,52.705,29.788,71.914c5.541,5.541,11.569,10.306,17.945,14.298    c0.002,0,0.004-0.001,0.006-0.001c-4.633,1.204-9.231,2.556-13.778,4.076c-3.903,1.305-6.009,5.526-4.704,9.43    c1.304,3.903,5.527,6.009,9.429,4.705c40.636-13.585,85.396-13.585,126.032,0c0.784,0.262,1.58,0.386,2.363,0.386    c3.117,0,6.023-1.972,7.066-5.091c1.305-3.903-0.801-8.125-4.704-9.43c-4.547-1.52-9.145-2.873-13.778-4.076    c0.002,0,0.004,0.001,0.006,0.001c6.377-3.992,12.404-8.757,17.945-14.298c4.902-4.902,9.229-10.255,12.986-15.944    c2.054,0.399,4.093,0.817,6.102,1.253c2.676,0.581,5.34,1.205,7.98,1.86c-0.083,0.324-0.168,0.647-0.237,0.976    c-3.634,17.245-3.398,32.497,0.701,45.33c3.684,11.535,10.333,20.88,19.76,27.777c11.111,8.128,24.525,11.639,36.676,11.639    c9.145,0,17.576-1.99,23.768-5.497c7.004-3.967,12.872-12.326,17.517-24.876c2.147,2.506,4.182,5.073,6.1,7.701    c7.777,10.654,13.714,22.396,17.646,34.898c2.309,7.343,8.041,13.121,15.332,15.458l20.972,6.718    c5.503,1.763,9.2,6.828,9.2,12.606v34.775c0,5.778-3.697,10.843-9.2,12.606l-33.789,10.823    c-5.406,1.733-9.981,5.448-12.882,10.462c-13.275,22.942-34.146,41.927-62.037,56.428c-3.222,1.677-5.454,4.676-6.126,8.23    l-10.822,57.303c-0.299,1.579-1.682,2.724-3.289,2.724h-35.187c-1.607,0-2.99-1.146-3.289-2.724l-5.994-31.669    c-1.18-6.231-7.024-10.37-13.314-9.417c-15.157,2.292-30.775,3.453-46.418,3.453c-11.638,0-23.127-0.649-34.15-1.93    c-6.095-0.701-11.773,3.454-12.912,9.472l-5.696,30.091c-0.299,1.579-1.682,2.724-3.289,2.724h-35.187    c-1.607,0-2.99-1.146-3.293-2.748l-10.42-54.122c-0.671-3.487-2.861-6.452-6.012-8.135C96.25,401.595,71.12,359.191,71.12,304.351    c0-27.708,6.062-52.209,18.017-72.825c11.156-19.239,27.45-35.146,48.429-47.281c3.562-2.061,4.779-6.619,2.719-10.182    c-2.06-3.562-6.618-4.777-10.181-2.719C89.425,194.876,64.89,231.18,58.135,277.29v-0.001c-0.717-0.065-1.435-0.127-2.15-0.201    c0.13-4.975-0.77-9.995-2.73-14.867c-4.323-10.746-13.203-18.502-22.624-19.759c-7.424-0.994-14.489,2.158-19.392,8.636    c-7.109,9.394-5.95,16.828-3.727,21.41c3.753,7.733,13.4,13.203,29.409,16.642c-0.44,0.659-0.924,1.321-1.454,1.986    c-9.459,11.863-20.603,14.486-27.839,14.733C3.392,306.012,0,309.413,0,313.652v0.036c0,4.181,3.299,7.591,7.476,7.782    c0.535,0.025,1.094,0.038,1.676,0.038c9.156,0,23.851-3.377,37.969-21.08c2.229-2.794,4.045-5.742,5.441-8.788    c1.406,0.159,2.757,0.295,4.051,0.415c0-0.003,0-0.005,0.001-0.008c-0.254,4.038-0.395,8.135-0.395,12.304    c0,31.028,7.397,58.693,21.984,82.23c13.45,21.7,32.707,39.468,57.255,52.83l10.13,52.616c1.629,8.608,9.17,14.856,17.931,14.856    h35.187c8.761,0,16.302-6.248,17.931-14.856l5.15-27.208c10.696,1.133,21.77,1.707,32.965,1.707c15.36,0,30.702-1.07,45.654-3.182    l5.429,28.685c1.63,8.608,9.171,14.855,17.931,14.855h35.187c8.761,0,16.302-6.248,17.932-14.859l10.537-55.791    c29.768-15.741,52.206-36.419,66.704-61.475c1.045-1.806,2.654-3.131,4.53-3.732l33.788-10.823    C504.141,356.455,512,345.686,512,333.403v-34.775C512,286.346,504.141,275.577,492.444,271.83z M421.278,183.273    c-2.868,24.526-10.561,45.506-18.291,49.884c-8.786,4.977-29.071,5.938-44.301-5.203c-15.248-11.154-20.323-31.212-14.678-58.006    c0-0.001,0-0.001,0-0.001c0.567-2.691,2.479-5.019,5.114-6.225c37.304-17.076,58.811-22.661,66.801-22.661    c1.206,0,2.104,0.127,2.702,0.361C421.025,143.98,424.173,158.521,421.278,183.273z M20.921,266.001    c-0.771-1.59,1.049-4.385,2.203-5.911c1.829-2.416,3.514-2.91,4.787-2.91c0.269,0,0.52,0.022,0.75,0.053    c3.426,0.457,8.226,4.227,10.769,10.548c0.599,1.488,1.377,3.953,1.559,7.027C30.674,272.671,22.66,269.59,20.921,266.001z" fill="#ffffff"/><path d="M237.918,98.277V71.613c9.195,0.657,12.611,4.86,15.763,4.86c3.941,0,5.78-4.991,5.78-7.487    c0-6.437-12.611-9.195-21.543-9.458V55.98c0-1.576-1.971-3.021-3.941-3.021c-2.234,0-3.81,1.445-3.81,3.021v3.809    c-12.479,1.314-24.958,7.882-24.958,24.433c0,16.814,13.136,21.543,24.958,25.746v30.869    c-13.399-1.051-16.945-10.246-21.28-10.246c-3.284,0-6.042,4.335-6.042,7.488c0,6.436,11.034,15.237,27.322,15.5h0v4.072    c0,1.576,1.577,3.021,3.81,3.021c1.971,0,3.941-1.445,3.941-3.021v-4.466c14.187-1.971,23.907-10.903,23.907-27.06    C261.825,108.261,249.346,102.48,237.918,98.277z M230.955,95.782c-6.962-2.627-12.61-5.385-12.61-12.872    c0-6.831,5.254-10.115,12.61-11.034V95.782z M237.129,140.574v-27.716c6.436,2.758,11.559,6.436,11.559,14.711    C248.688,135.058,244.222,139.261,237.129,140.574z" fill="#ffffff"/></g></defs><g fi:class="KUsePattern"><pattern id="pattern_L1_92" width="350" height="350" patternUnits="userSpaceOnUse"><use xlink:href="#L1_92" x="-350" y="-350"/><use xlink:href="#L1_92" x="0" y="-350"/><use xlink:href="#L1_92" x="350" y="-350"/><use xlink:href="#L1_92" x="-350" y="0"/><use xlink:href="#L1_92" x="0" y="0"/><use xlink:href="#L1_92" x="350" y="0"/><use xlink:href="#L1_92" x="-350" y="350"/><use xlink:href="#L1_92" x="0" y="350"/><use xlink:href="#L1_92" x="350" y="350"/></pattern><rect x="0" y="0" width="100%" height="100%" fill="url(#pattern_L1_92)"/></g><g fi:class="KUsePattern"><pattern id="pattern_L1_93" width="350" height="350" patternUnits="userSpaceOnUse"><use xlink:href="#L1_93" x="-350" y="-350"/><use xlink:href="#L1_93" x="0" y="-350"/><use xlink:href="#L1_93" x="350" y="-350"/><use xlink:href="#L1_93" x="-350" y="0"/><use xlink:href="#L1_93" x="0" y="0"/><use xlink:href="#L1_93" x="350" y="0"/><use xlink:href="#L1_93" x="-350" y="350"/><use xlink:href="#L1_93" x="0" y="350"/><use xlink:href="#L1_93" x="350" y="350"/></pattern><rect x="0" y="0" width="100%" height="100%" fill="url(#pattern_L1_93)"/></g><g fi:class="KUsePattern"><pattern id="pattern_L1_94" width="350" height="350" patternUnits="userSpaceOnUse"><use xlink:href="#L1_94" x="-350" y="-350"/><use xlink:href="#L1_94" x="0" y="-350"/><use xlink:href="#L1_94" x="350" y="-350"/><use xlink:href="#L1_94" x="-350" y="0"/><use xlink:href="#L1_94" x="0" y="0"/><use xlink:href="#L1_94" x="350" y="0"/><use xlink:href="#L1_94" x="-350" y="350"/><use xlink:href="#L1_94" x="0" y="350"/><use xlink:href="#L1_94" x="350" y="350"/></pattern><rect x="0" y="0" width="100%" height="100%" fill="url(#pattern_L1_94)"/></g><g fi:class="KUsePattern"><pattern id="pattern_L1_95" width="350" height="350" patternUnits="userSpaceOnUse"><use xlink:href="#L1_95" x="-350" y="-350"/><use xlink:href="#L1_95" x="0" y="-350"/><use xlink:href="#L1_95" x="350" y="-350"/><use xlink:href="#L1_95" x="-350" y="0"/><use xlink:href="#L1_95" x="0" y="0"/><use xlink:href="#L1_95" x="350" y="0"/><use xlink:href="#L1_95" x="-350" y="350"/><use xlink:href="#L1_95" x="0" y="350"/><use xlink:href="#L1_95" x="350" y="350"/></pattern><rect x="0" y="0" width="100%" height="100%" fill="url(#pattern_L1_95)"/></g><g fi:class="KUsePattern"><pattern id="pattern_L1_96" width="350" height="350" patternUnits="userSpaceOnUse"><use xlink:href="#L1_96" x="-350" y="-350"/><use xlink:href="#L1_96" x="0" y="-350"/><use xlink:href="#L1_96" x="350" y="-350"/><use xlink:href="#L1_96" x="-350" y="0"/><use xlink:href="#L1_96" x="0" y="0"/><use xlink:href="#L1_96" x="350" y="0"/><use xlink:href="#L1_96" x="-350" y="350"/><use xlink:href="#L1_96" x="0" y="350"/><use xlink:href="#L1_96" x="350" y="350"/></pattern><rect x="0" y="0" width="100%" height="100%" fill="url(#pattern_L1_96)"/></g></svg>