<?xml version="1.0" encoding="iso-8859-1"?>
<!-- Generator: Adobe Illustrator 19.0.0, SVG Export Plug-In . SVG Version: 6.00 Build 0)  -->
<svg xmlns="http://www.w3.org/2000/svg" xmlns:xlink="http://www.w3.org/1999/xlink" version="1.1" id="Capa_1" x="0px" y="0px" viewBox="0 0 480 480" style="enable-background:new 0 0 480 480;" xml:space="preserve" width="512px" height="512px">
<g>
	<g>
		<rect x="160" y="112" width="104" height="16" fill="#23527c"/>
	</g>
</g>
<g>
	<g>
		<rect x="280" y="112" width="40" height="16" fill="#23527c"/>
	</g>
</g>
<g>
	<g>
		<path d="M440,0h-16c-4.418,0-8,3.582-8,8v56H8c-4.418,0-8,3.582-8,8v336c0,4.418,3.582,8,8,8h432c22.091,0,40-17.909,40-40V40    C480,17.909,462.091,0,440,0z M440,400H16V80h400v264c0,4.418,3.582,8,8,8h16c13.255,0,24,10.745,24,24S453.255,400,440,400z     M464,344c-6.924-5.193-15.345-8-24-8h-8V16h8c13.255,0,24,10.745,24,24V344z" fill="#23527c"/>
	</g>
</g>
<g>
	<g>
		<path d="M392,256h-40v-24c0-4.418-3.582-8-8-8h-96v-16h40c4.418,0,8-3.582,8-8v-48c0-4.418-3.582-8-8-8h-96c-4.418,0-8,3.582-8,8    v48c0,4.418,3.582,8,8,8h40v16h-96c-4.418,0-8,3.582-8,8v24H88c-4.418,0-8,3.582-8,8v48c0,4.418,3.582,8,8,8h96    c4.418,0,8-3.582,8-8v-48c0-4.418-3.582-8-8-8h-40v-16h192v16h-40c-4.418,0-8,3.582-8,8v48c0,4.418,3.582,8,8,8h96    c4.418,0,8-3.582,8-8v-48C400,259.582,396.418,256,392,256z M176,272v32H96v-32H176z M200,192v-32h80v32H200z M384,304h-80v-32h80    V304z" fill="#23527c"/>
	</g>
</g>
<g>
	<g>
		<rect x="80" y="336" width="32" height="16" fill="#23527c"/>
	</g>
</g>
<g>
	<g>
		<rect x="128" y="336" width="64" height="16" fill="#23527c"/>
	</g>
</g>
<g>
	<g>
		<path d="M392,432H208c-1.568,0.012-3.098,0.485-4.4,1.36l-24,16c-3.667,2.464-4.642,7.435-2.178,11.102    c0.578,0.86,1.318,1.6,2.178,2.178l24,16c1.302,0.875,2.832,1.348,4.4,1.36h184c4.418,0,8-3.582,8-8v-32    C400,435.582,396.418,432,392,432z M352,464H210.4l-12-8l12-8H352V464z M384,464h-16v-16h16V464z" fill="#23527c"/>
	</g>
</g>
<g>
	<g>
		<rect x="288" y="336" width="64" height="16" fill="#23527c"/>
	</g>
</g>
<g>
	<g>
		<rect x="368" y="336" width="32" height="16" fill="#23527c"/>
	</g>
</g>
<g>
</g>
<g>
</g>
<g>
</g>
<g>
</g>
<g>
</g>
<g>
</g>
<g>
</g>
<g>
</g>
<g>
</g>
<g>
</g>
<g>
</g>
<g>
</g>
<g>
</g>
<g>
</g>
<g>
</g>
</svg>
