<?xml version="1.0"?>
<svg xmlns="http://www.w3.org/2000/svg" xmlns:xlink="http://www.w3.org/1999/xlink" version="1.1" id="Capa_1" x="0px" y="0px" viewBox="0 0 511.997 511.997" style="enable-background:new 0 0 511.997 511.997;" xml:space="preserve" width="512px" height="512px" class=""><g><g>
	<path style="fill:#FFFFFF" d="M70.999,124.994c64.304-18.6,125.905-43.627,185.012-75.13   c58.404,31.046,121.407,56.623,184.988,75.108v83.723c0,75.965-28.749,142.468-83.347,194.942   c-19.325,18.573-41.61,35.061-65.196,47.829c-8.18,4.428-26.391,13.523-36.457,15.381c-10.066-1.858-28.278-10.953-36.457-15.381   c-23.587-12.769-45.873-29.256-65.197-47.829c-54.598-52.474-83.346-118.977-83.346-194.942V124.994L70.999,124.994z    M35.999,98.302v110.393c0,207.101,189.269,293.302,220,293.302c30.73,0,219.999-86.201,219.999-293.302V98.302   C402.238,79.177,325.068,48.591,255.999,10C186.692,48.721,114.208,78.023,35.999,98.302z" data-original="#E1E6E9" class="" data-old_color="#ffffff"/>
	<path style="fill:#2BDAA6" d="M256.01,49.865c-59.106,31.502-120.708,56.53-185.011,75.13v83.701   c0,75.965,28.748,142.468,83.346,194.942c19.324,18.573,41.61,35.061,65.197,47.829c8.179,4.428,26.391,13.523,36.457,15.381   c10.066-1.858,28.277-10.953,36.457-15.381c23.586-12.769,45.871-29.256,65.196-47.829   c54.598-52.474,83.347-118.977,83.347-194.942v-83.723C377.418,106.487,314.415,80.91,256.01,49.865L256.01,49.865z    M336.489,182.458L336.489,182.458L336.489,182.458z M175.507,222.939c8.284-8.284,21.841-8.284,30.124,0l30.127,30.126   l70.606-70.606c8.284-8.284,21.841-8.284,30.125,0s8.284,21.841,0,30.125l-85.669,85.669c-8.285,8.285-21.841,8.285-30.125,0   l-45.189-45.188C167.222,244.779,167.222,231.223,175.507,222.939z" data-original="#80A7FF" class="" data-old_color="#2bdaa6"/>
	<path style="fill:#FFFFFF" d="M336.49,182.458L336.49,182.458L336.49,182.458z M235.758,253.065l-30.127-30.126   c-8.283-8.284-21.84-8.284-30.124,0c-8.285,8.285-8.285,21.841-0.001,30.125l45.189,45.188c8.284,8.285,21.84,8.285,30.125,0   l85.669-85.669c8.284-8.284,8.284-21.841,0-30.125s-21.841-8.284-30.125,0L235.758,253.065z" data-original="#F9AD32" class="active-path" data-old_color="#ffffff"/>
</g><path d="M478.507,88.622C403.691,69.224,328.435,39.019,260.876,1.27c-3.031-1.694-6.724-1.694-9.755,0  C181.62,40.099,110.432,68.672,33.489,88.622c-4.41,1.144-7.49,5.124-7.49,9.68v110.393c0,113.534,55.292,188.636,101.676,231.646  c49.757,46.139,107.459,71.656,128.324,71.656c20.863,0,78.565-25.517,128.323-71.656  c46.384-43.011,101.676-118.113,101.676-231.646V98.302C485.998,93.746,482.917,89.766,478.507,88.622z M465.998,208.695  c0,106.318-51.81,176.678-95.275,216.981c-27.557,25.553-54.336,41.685-71.948,50.718c-22.319,11.447-37.81,15.603-42.775,15.603  c-4.966,0-20.457-4.155-42.776-15.603c-17.612-9.034-44.392-25.165-71.949-50.718C97.81,385.374,45.999,315.014,45.999,208.695  V106.008c73.963-19.8,142.8-47.524,210.001-84.573c65.497,36.06,137.826,65.185,209.997,84.569v102.691H465.998z" data-original="#000000" class="" style="fill:#2A4F56" data-old_color="#2a4f56"/><path d="M68.22,115.388c-4.277,1.237-7.222,5.153-7.222,9.606v83.701c0,39.077,7.405,76.16,22.008,110.221  c14.53,33.89,36.201,64.82,64.408,91.931c20.174,19.39,43.469,36.477,67.366,49.414c4.281,2.318,26.302,14.002,39.402,16.421  c0.6,0.111,1.208,0.167,1.815,0.167c0.608,0,1.216-0.056,1.815-0.167c13.097-2.418,35.12-14.103,39.402-16.421  c23.895-12.936,47.189-30.022,67.365-49.413c28.208-27.111,49.878-58.041,64.408-91.931c14.607-34.062,22.012-71.145,22.012-110.222  v-83.723c0-4.448-2.938-8.361-7.208-9.603c-63.336-18.413-124.935-43.423-183.087-74.335c-2.936-1.561-6.459-1.561-9.397,0.005  C193.07,72.078,131.471,97.092,68.22,115.388z M256.016,61.176c55.759,29.25,114.569,53.204,174.982,71.272v76.247  c0,73.374-27.009,136.537-80.276,187.732c-18.897,18.162-40.691,34.153-63.027,46.245c-10.167,5.503-23.892,11.919-31.696,13.934  c-7.807-2.015-21.531-8.43-31.696-13.934c-22.338-12.092-44.133-28.083-63.029-46.245c-53.267-51.195-80.275-114.357-80.275-187.732  v-76.214C141.353,114.51,200.17,90.547,256.016,61.176z" data-original="#000000" class="" style="fill:#2A4F56" data-old_color="#2a4f56"/><path d="M158.224,371.754c1.969,2.146,4.665,3.238,7.371,3.238c2.383,0,4.775-0.847,6.686-2.567  c4.105-3.695,4.438-10.018,0.744-14.123l-0.243-0.262c-3.749-4.054-10.077-4.3-14.131-0.55s-4.301,10.077-0.55,14.131  C158.11,371.632,158.188,371.716,158.224,371.754z" data-original="#000000" class="" style="fill:#2A4F56" data-old_color="#2a4f56"/><path d="M226.963,403.693c-12.044-7.6-23.643-16.362-34.473-26.044c-4.116-3.681-10.439-3.328-14.12,0.791  c-3.681,4.117-3.327,10.439,0.79,14.12c11.656,10.42,24.148,19.857,37.129,28.048c1.657,1.046,3.502,1.544,5.327,1.544  c3.318,0,6.564-1.651,8.466-4.665C233.031,412.815,231.633,406.64,226.963,403.693z" data-original="#000000" class="" style="fill:#2A4F56" data-old_color="#2a4f56"/><path d="M213.625,305.324c5.895,5.896,13.756,9.143,22.133,9.143c8.378,0,16.239-3.247,22.134-9.143l85.669-85.669  c5.896-5.895,9.142-13.756,9.142-22.134s-3.246-16.238-9.142-22.134c-5.895-5.896-13.757-9.142-22.134-9.142  c-8.378,0-16.239,3.247-22.134,9.142l-63.535,63.536l-23.056-23.055c-5.895-5.896-13.755-9.143-22.133-9.143  c-8.377,0-16.238,3.247-22.135,9.143c-12.204,12.204-12.204,32.063,0,44.267L213.625,305.324z M182.579,230.01  c2.118-2.118,4.956-3.284,7.991-3.284s5.872,1.166,7.991,3.284l30.127,30.126c3.905,3.905,10.237,3.905,14.142,0l70.606-70.607  c2.118-2.118,4.955-3.284,7.991-3.284c3.035,0,5.873,1.167,7.991,3.285s3.284,4.956,3.284,7.991c0,3.036-1.166,5.873-3.284,7.991  l-85.668,85.669c-2.119,2.118-4.957,3.285-7.992,3.285s-5.874-1.166-7.992-3.285l-45.188-45.188  c-2.118-2.118-3.284-4.956-3.284-7.991C179.293,234.966,180.46,232.128,182.579,230.01z" data-original="#000000" class="" style="fill:#2A4F56" data-old_color="#2a4f56"/></g> </svg>
